<svg xmlns="http://www.w3.org/2000/svg" xmlns:xlink="http://www.w3.org/1999/xlink" width="500" zoomAndPan="magnify" viewBox="0 0 375 374.999991" height="500" preserveAspectRatio="xMidYMid meet" version="1.0"><defs><clipPath id="e7aefcde8a"><path d="M 9.734375 4 L 353 4 L 353 375 L 9.734375 375 Z M 9.734375 4 " clip-rule="nonzero"/></clipPath></defs><path fill="#ffffff" d="M 314.324219 238.019531 C 321.734375 226.902344 325.933594 213.808594 325.933594 199.976562 C 325.933594 175.273438 313.085938 153.285156 291.84375 140.933594 L 268.375 127.347656 L 268.375 112.277344 L 300.242188 130.804688 C 321.488281 143.15625 334.332031 165.144531 334.332031 189.847656 C 334.332031 208.128906 327.167969 225.417969 314.324219 238.019531 Z M 314.324219 238.019531 " fill-opacity="1" fill-rule="nonzero"/><path fill="#ffffff" d="M 229.839844 200.222656 L 229.839844 289.398438 L 221.4375 294.339844 L 221.4375 210.597656 L 204.886719 210.597656 C 199.207031 210.597656 194.511719 205.902344 194.511719 200.222656 L 194.511719 84.613281 L 160.175781 64.847656 L 160.175781 49.78125 L 203.160156 74.484375 L 203.160156 189.847656 C 203.160156 195.527344 207.851562 200.222656 213.535156 200.222656 Z M 229.839844 200.222656 " fill-opacity="1" fill-rule="nonzero"/><g clip-path="url(#e7aefcde8a)"><path fill="#35b8be" d="M 121.390625 350.910156 C 118.675781 351.898438 115.710938 352.886719 112.992188 353.628906 C 96.195312 357.828125 78.410156 355.355469 62.847656 346.464844 C 41.601562 334.113281 28.753906 312.125 28.753906 287.421875 L 28.753906 91.777344 C 28.753906 77.695312 32.707031 64.601562 40.121094 53.734375 C 45.800781 45.335938 53.457031 38.171875 62.597656 32.734375 C 72.726562 27.054688 83.347656 23.84375 94.464844 23.59375 L 94.464844 189.847656 C 94.464844 195.527344 99.160156 200.222656 104.839844 200.222656 L 121.390625 200.222656 Z M 309.136719 114.007812 L 140.414062 16.183594 C 113.238281 0.375 80.632812 0.375 53.210938 16.183594 C 41.847656 22.855469 32.460938 31.5 25.296875 41.628906 C 15.167969 55.957031 9.734375 73.25 9.734375 91.777344 L 9.734375 287.175781 C 9.734375 318.796875 26.039062 347.203125 53.210938 362.769531 C 66.796875 370.671875 81.867188 374.625 96.9375 374.625 C 103.359375 374.625 109.78125 373.882812 115.957031 372.402344 C 121.144531 371.167969 128.0625 369.683594 132.753906 366.71875 C 132.753906 366.71875 133.003906 366.71875 133.25 366.472656 L 133.25 199.726562 L 149.800781 199.726562 C 150.292969 199.726562 151.035156 199.726562 151.53125 199.480469 C 156.222656 198.492188 159.929688 194.292969 159.929688 189.351562 L 159.929688 49.535156 L 202.664062 74.238281 L 202.664062 189.601562 C 202.664062 195.28125 207.359375 199.976562 213.039062 199.976562 L 229.589844 199.976562 L 229.589844 289.152344 L 221.191406 294.09375 L 150.542969 334.851562 L 150.542969 357.085938 L 241.203125 304.714844 L 241.203125 282.484375 L 240.953125 282.484375 L 240.953125 199.976562 L 257.503906 199.976562 C 258 199.976562 258.742188 199.976562 259.234375 199.726562 C 263.929688 198.738281 267.632812 194.539062 267.632812 189.601562 L 267.632812 112.03125 L 299.5 130.558594 C 320.746094 142.910156 333.589844 164.898438 333.589844 189.601562 C 333.589844 208.128906 326.425781 225.417969 313.582031 238.019531 C 309.382812 242.21875 304.6875 245.675781 299.5 248.640625 L 258.492188 272.355469 L 258.492188 294.585938 L 309.136719 265.191406 C 316.300781 260.992188 322.96875 255.804688 328.402344 250.121094 C 343.71875 234.066406 352.613281 212.820312 352.613281 189.601562 C 352.859375 157.980469 336.554688 129.820312 309.136719 114.007812 Z M 309.136719 114.007812 " fill-opacity="1" fill-rule="nonzero"/></g><path fill="#ffffff" d="M 121.640625 200.222656 L 121.640625 350.910156 C 118.921875 351.898438 115.957031 352.886719 113.238281 353.628906 L 113.238281 210.351562 L 96.6875 210.351562 C 91.007812 210.351562 86.3125 205.65625 86.3125 199.976562 L 86.3125 33.96875 C 75.199219 34.464844 64.328125 37.429688 54.445312 43.109375 C 49.257812 46.074219 44.566406 49.78125 40.367188 53.980469 C 46.046875 45.582031 53.707031 38.417969 62.847656 32.984375 C 72.972656 27.300781 83.84375 24.089844 94.710938 23.84375 L 94.710938 190.09375 C 94.710938 195.777344 99.40625 200.46875 105.089844 200.46875 L 121.640625 200.46875 Z M 121.640625 200.222656 " fill-opacity="1" fill-rule="nonzero"/><path fill="#ffffff" d="M 135.226562 36.195312 L 149.800781 44.59375 L 149.800781 154.519531 Z M 135.226562 36.195312 " fill-opacity="1" fill-rule="nonzero"/><path fill="#ffffff" d="M 250.34375 100.914062 L 260.222656 106.597656 L 260.222656 180.460938 Z M 250.34375 100.914062 " fill-opacity="1" fill-rule="nonzero"/></svg>