<svg xmlns="http://www.w3.org/2000/svg" xmlns:xlink="http://www.w3.org/1999/xlink" width="500" zoomAndPan="magnify" viewBox="0 0 375 374.999991" height="500" preserveAspectRatio="xMidYMid meet" version="1.0"><defs><clipPath id="ef7af6cb59"><path d="M 10.699219 10.699219 L 363.949219 10.699219 L 363.949219 363.949219 L 10.699219 363.949219 Z M 10.699219 10.699219 " clip-rule="nonzero"/></clipPath></defs><g clip-path="url(#ef7af6cb59)"><path fill="#35b8be" d="M 312.503906 62.480469 C 279.113281 29.089844 234.714844 10.699219 187.492188 10.699219 C 140.269531 10.699219 95.875 29.089844 62.480469 62.480469 C 29.089844 95.875 10.699219 140.269531 10.699219 187.492188 C 10.699219 234.714844 29.089844 279.113281 62.480469 312.503906 C 95.875 345.894531 140.269531 364.285156 187.492188 364.285156 C 234.714844 364.285156 279.113281 345.894531 312.503906 312.503906 C 345.894531 279.113281 364.285156 234.714844 364.285156 187.492188 C 364.285156 140.269531 345.894531 95.875 312.503906 62.480469 Z M 70.503906 70.503906 C 101.753906 39.253906 143.300781 22.046875 187.492188 22.046875 C 231.683594 22.046875 273.234375 39.253906 304.480469 70.503906 C 335.730469 101.753906 352.941406 143.300781 352.941406 187.492188 C 352.941406 224.230469 341.035156 259.132812 319.070312 287.816406 C 301.59375 263.375 273.679688 248.9375 243.367188 248.9375 L 131.617188 248.9375 C 101.304688 248.9375 73.394531 263.375 55.914062 287.816406 C 33.949219 259.132812 22.046875 224.230469 22.046875 187.492188 C 22.046875 143.300781 39.253906 101.753906 70.503906 70.503906 Z M 187.492188 239.617188 C 232.917969 239.617188 269.871094 202.660156 269.871094 157.238281 C 269.871094 111.816406 232.917969 74.863281 187.492188 74.863281 C 142.070312 74.863281 105.117188 111.816406 105.117188 157.238281 C 105.117188 202.660156 142.070312 239.617188 187.492188 239.617188 Z M 187.492188 239.617188 " fill-opacity="1" fill-rule="nonzero"/></g></svg>